<?xml version="1.0" encoding="UTF-8"?>
<svg width="652px" height="94px" viewBox="0 0 652 94" version="1.1" xmlns="http://www.w3.org/2000/svg" xmlns:xlink="http://www.w3.org/1999/xlink">
    <!-- Generator: Sketch 54.1 (76490) - https://sketchapp.com -->
    <title>AS_LOGO_Black</title>
    <desc>Created with Sketch.</desc>
    <g id="&lt;-STYLE-&gt;-LOGO" stroke="none" stroke-width="1" fill="none" fill-rule="evenodd">
        <g id="LOGO_2019-Leading-artboard" transform="translate(-697.000000, -430.000000)" fill="#242B29">
            <g id="AS_LOGO_Black" transform="translate(697.000000, 430.000000)">
                <g id="AS_LOGO_White_BIG-Copy-3">
                    <path d="M0,0 L651.974359,0 L651.974359,94 L0,94 L0,0 Z M6,6 L6,88 L645.974359,88 L645.974359,6 L6,6 Z" id="Rectangle" fill-rule="nonzero"></path>
                    <path d="M33.9918471,63.235853 L32.5083597,69.5784141 C32.3793602,70.009883 32.0783658,70.2256142 31.6053674,70.2256142 L23.800934,70.2256142 C23.241936,70.2256142 23.02694,69.9451636 23.1559395,69.3842541 L34.7658404,25.5688064 C34.89484,25.1373375 35.1958344,24.9216062 35.6688327,24.9216062 L45.0212529,24.9216062 C45.4942512,24.9216062 45.7952457,25.1373375 45.9242452,25.5688064 L57.5986456,69.3842541 L57.663145,69.6431341 C57.663145,70.0314561 57.4266494,70.2256142 56.9536511,70.2256142 L49.0202188,70.2256142 C48.5902203,70.2256142 48.3107255,70.009883 48.1817259,69.5784141 L46.6982386,63.235853 M46.6982386,63.235853 L40.6352904,37.1536884 C40.5922905,36.9811008 40.5277917,36.9055949 40.441792,36.9271684 C40.3557923,36.9487418 40.2912935,37.0242477 40.2482937,37.1536884 L33.9918471,63.235853 M63.0877711,70.2256142 C62.8727719,70.2256142 62.6900253,70.1501083 62.5395258,69.9990942 C62.3890263,69.8480801 62.3137777,69.6647085 62.3137777,69.4489741 L62.3137777,25.6982464 C62.3137777,25.4825119 62.3890263,25.2991404 62.5395258,25.1481263 C62.6900253,24.9971122 62.8727719,24.9216062 63.0877711,24.9216062 L70.5052078,24.9216062 C70.9352063,24.9216062 71.2577003,25.0941912 71.4726996,25.4393663 L78.8256368,38.9658487 C78.9546364,39.1384363 79.083634,39.1384363 79.2126335,38.9658487 L86.6300702,25.4393663 C86.8450694,25.0941912 87.1675635,24.9216062 87.5975619,24.9216062 L95.0149986,24.9216062 C95.2299979,24.9216062 95.4127445,24.9971122 95.563244,25.1481263 C95.7137434,25.2991404 95.788992,25.4825119 95.788992,25.6982464 L95.788992,69.4489741 C95.788992,69.6647085 95.7137434,69.8480801 95.563244,69.9990942 C95.4127445,70.1501083 95.2299979,70.2256142 95.0149986,70.2256142 L87.468563,70.2256142 C87.2535638,70.2256142 87.0708172,70.1501083 86.9203177,69.9990942 C86.7698183,69.8480801 86.6945696,69.6647085 86.6945696,69.4489741 L86.6945696,41.3604891 C86.6945696,41.1879016 86.6515704,41.1016091 86.5655707,41.1016091 C86.4795711,41.1016091 86.3935726,41.1663285 86.307573,41.2957691 L81.0831175,50.8743308 C80.8681183,51.2195059 80.5456243,51.3920909 80.1156258,51.3920909 L77.9226445,51.3920909 C77.4496462,51.3920909 77.1271522,51.2195059 76.9551528,50.8743308 L71.7951968,41.2310491 C71.7091971,41.1016084 71.6231987,41.0476756 71.537199,41.0692491 C71.4511993,41.0908225 71.4082001,41.1879016 71.4082001,41.3604891 L71.4082001,69.4489741 C71.4082001,69.6647085 71.3329515,69.8480801 71.182452,69.9990942 C71.0319526,70.1501083 70.849206,70.2256142 70.6342067,70.2256142 L63.0877711,70.2256142 Z M115.661495,70.7433743 C112.737505,70.7433743 110.168303,70.2148328 107.953811,69.157734 C105.739318,68.1006352 104.0301,66.6120898 102.826104,64.6920532 C101.622109,62.7720166 101.02012,60.5607717 101.02012,58.0582521 L101.02012,56.3108118 C101.02012,56.0950773 101.095368,55.9117058 101.245868,55.7606917 C101.396367,55.6096776 101.579114,55.5341716 101.794113,55.5341716 L109.21155,55.5341716 C109.426549,55.5341716 109.609296,55.6096776 109.759795,55.7606917 C109.910295,55.9117058 109.985543,56.0950773 109.985543,56.3108118 L109.985543,57.605212 C109.985543,59.1153531 110.544533,60.3773807 111.662529,61.3913327 C112.780525,62.4052846 114.242498,62.9122529 116.048492,62.9122529 C117.725486,62.9122529 119.004712,62.4807905 119.886209,61.6178527 C120.767706,60.7549149 121.208447,59.6546857 121.208447,58.3171321 C121.208447,57.3247537 120.928953,56.4726154 120.369955,55.7606917 C119.810957,55.048768 119.026221,54.3800012 118.015725,53.7543713 C117.005228,53.1287414 115.446507,52.2766031 113.339515,51.1979309 C110.759524,49.9035242 108.652563,48.6954294 107.018569,47.5736102 C105.384574,46.4517911 103.9871,45.006392 102.826104,43.2373695 C101.665108,41.468347 101.084619,39.332608 101.084619,36.8300883 C101.084619,33.033162 102.374595,30.012925 104.954586,27.7692867 C107.534577,25.5256485 110.931514,24.4038462 115.145499,24.4038462 C118.026489,24.4038462 120.584942,24.9539607 122.820934,26.0542064 C125.056926,27.1544521 126.798394,28.6969303 128.045389,30.6816873 C129.292385,32.6664442 129.915873,34.9531951 129.915873,37.5420085 L129.915873,38.8364087 C129.915873,39.0521431 129.840625,39.2355147 129.690125,39.3865288 C129.539626,39.5375429 129.356879,39.6130488 129.14188,39.6130488 L121.724443,39.6130488 C121.509444,39.6130488 121.326697,39.5375429 121.176198,39.3865288 C121.025698,39.2355147 120.95045,39.0521431 120.95045,38.8364087 L120.95045,37.6714485 C120.95045,36.1181604 120.41296,34.8237732 119.337963,33.7882478 C118.262967,32.7527224 116.822494,32.2349675 115.0165,32.2349675 C113.468506,32.2349675 112.253778,32.6340703 111.372281,33.4322877 C110.490785,34.2305052 110.050043,35.341521 110.050043,36.7653683 C110.050043,37.7577468 110.308038,38.6206717 110.824036,39.3541688 C111.340034,40.0876659 112.13552,40.7887924 113.210516,41.4575692 C114.285512,42.1263459 115.897982,43.0000574 118.047974,44.0787296 L119.466962,44.8553698 C121.960954,46.2792171 123.906667,47.4980985 125.304163,48.5120504 C126.701658,49.5260023 127.873386,50.7988165 128.819383,52.3305311 C129.765379,53.8622457 130.23837,55.7283207 130.23837,57.9288121 C130.23837,61.8120322 128.905395,64.9185616 126.239405,67.2484937 C123.573414,69.5784258 120.047479,70.7433743 115.661495,70.7433743 Z M162.817265,24.9216062 C163.032264,24.9216062 163.215011,24.9971122 163.36551,25.1481263 C163.51601,25.2991404 163.591258,25.4825119 163.591258,25.6982464 L163.591258,32.0408075 C163.591258,32.2565419 163.51601,32.4399135 163.36551,32.5909276 C163.215011,32.7419417 163.032264,32.8174476 162.817265,32.8174476 L153.013348,32.8174476 C152.798349,32.8174476 152.690851,32.9253132 152.690851,33.1410477 L152.690851,69.4489741 C152.690851,69.6647085 152.615603,69.8480801 152.465103,69.9990942 C152.314604,70.1501083 152.131857,70.2256142 151.916858,70.2256142 L144.370422,70.2256142 C144.155423,70.2256142 143.972676,70.1501083 143.822177,69.9990942 C143.671677,69.8480801 143.596429,69.6647085 143.596429,69.4489741 L143.596429,33.1410477 C143.596429,32.9253132 143.488931,32.8174476 143.273932,32.8174476 L133.792512,32.8174476 C133.577513,32.8174476 133.394767,32.7419417 133.244267,32.5909276 C133.093768,32.4399135 133.018519,32.2565419 133.018519,32.0408075 L133.018519,25.6982464 C133.018519,25.4825119 133.093768,25.2991404 133.244267,25.1481263 C133.394767,24.9971122 133.577513,24.9216062 133.792512,24.9216062 L162.817265,24.9216062 Z M195.718656,31.9760875 C195.718656,32.1918219 195.643408,32.3751935 195.492908,32.5262076 C195.342409,32.6772217 195.159662,32.7527276 194.944663,32.7527276 L177.65881,32.7527276 C177.443811,32.7527276 177.336313,32.8605932 177.336313,33.0763277 L177.336313,43.1726495 C177.336313,43.3883839 177.443811,43.4962495 177.65881,43.4962495 L188.430219,43.4962495 C188.645218,43.4962495 188.827964,43.5717554 188.978464,43.7227696 C189.128963,43.8737837 189.204212,44.0571552 189.204212,44.2728897 L189.204212,50.5507308 C189.204212,50.7664652 189.128963,50.9498367 188.978464,51.1008509 C188.827964,51.251865 188.645218,51.3273709 188.430219,51.3273709 L177.65881,51.3273709 C177.443811,51.3273709 177.336313,51.4352365 177.336313,51.6509709 L177.336313,62.0708928 C177.336313,62.2866272 177.443811,62.3944928 177.65881,62.3944928 L194.944663,62.3944928 C195.159662,62.3944928 195.342409,62.4699988 195.492908,62.6210129 C195.643408,62.772027 195.718656,62.9553985 195.718656,63.171133 L195.718656,69.4489741 C195.718656,69.6647085 195.643408,69.8480801 195.492908,69.9990942 C195.342409,70.1501083 195.159662,70.2256142 194.944663,70.2256142 L169.015884,70.2256142 C168.800885,70.2256142 168.618138,70.1501083 168.467639,69.9990942 C168.317139,69.8480801 168.241891,69.6647085 168.241891,69.4489741 L168.241891,25.6982464 C168.241891,25.4825119 168.317139,25.2991404 168.467639,25.1481263 C168.618138,24.9971122 168.800885,24.9216062 169.015884,24.9216062 L194.944663,24.9216062 C195.159662,24.9216062 195.342409,24.9971122 195.492908,25.1481263 C195.643408,25.2991404 195.718656,25.4825119 195.718656,25.6982464 L195.718656,31.9760875 Z M221.976605,70.2256142 C221.503606,70.2256142 221.202612,70.009883 221.073612,69.5784141 L214.559168,51.715691 C214.473168,51.5431034 214.36567,51.4568109 214.236671,51.4568109 L210.173205,51.4568109 C209.958206,51.4568109 209.850708,51.5646765 209.850708,51.780411 L209.850708,69.4489741 C209.850708,69.6647085 209.77546,69.8480801 209.62496,69.9990942 C209.474461,70.1501083 209.291714,70.2256142 209.076715,70.2256142 L201.530279,70.2256142 C201.31528,70.2256142 201.132533,70.1501083 200.982034,69.9990942 C200.831534,69.8480801 200.756286,69.6647085 200.756286,69.4489741 L200.756286,25.6335264 C200.756286,25.4177919 200.831534,25.2344204 200.982034,25.0834063 C201.132533,24.9323922 201.31528,24.8568862 201.530279,24.8568862 L217.268145,24.8568862 C219.805136,24.8568862 222.062594,25.428574 224.040587,26.5719665 C226.01858,27.7153591 227.545052,29.3225567 228.620048,31.3936074 C229.695044,33.4646581 230.232534,35.8377015 230.232534,38.5128086 C230.232534,41.2742096 229.619796,43.6796126 228.3943,45.7290899 C227.168804,47.7785672 225.459586,49.2994722 223.266594,50.2918507 C223.094594,50.3781445 223.051595,50.5291563 223.137595,50.7448908 L230.490532,69.3195341 C230.533532,69.4058278 230.555031,69.5136934 230.555031,69.6431341 C230.555031,70.0314561 230.318536,70.2256142 229.845537,70.2256142 L221.976605,70.2256142 Z M210.173205,32.7527276 C209.958206,32.7527276 209.850708,32.8605932 209.850708,33.0763277 L209.850708,44.0787296 C209.850708,44.2944641 209.958206,44.4023297 210.173205,44.4023297 L215.784657,44.4023297 C217.375652,44.4023297 218.665628,43.8737882 219.654624,42.8166894 C220.643621,41.7595906 221.138112,40.3681243 221.138112,38.6422487 C221.138112,36.8300793 220.643621,35.3954667 219.654624,34.3383679 C218.665628,33.2812691 217.375652,32.7527276 215.784657,32.7527276 L210.173205,32.7527276 Z M236.108656,70.2256142 C235.893657,70.2256142 235.710911,70.1501083 235.560411,69.9990942 C235.409912,69.8480801 235.334663,69.6647085 235.334663,69.4489741 L235.334663,25.6982464 C235.334663,25.4825119 235.409912,25.2991404 235.560411,25.1481263 C235.710911,24.9971122 235.893657,24.9216062 236.108656,24.9216062 L249.976038,24.9216062 C252.857028,24.9216062 255.404731,25.4609343 257.619223,26.5396065 C259.833715,27.6182788 261.542933,29.1499704 262.746929,31.1347273 C263.950925,33.1194843 264.552914,35.4278083 264.552914,38.0597686 L264.552914,57.0874519 C264.552914,59.7194122 263.950925,62.0277362 262.746929,64.0124931 C261.542933,65.9972501 259.833715,67.5289417 257.619223,68.6076139 C255.404731,69.6862862 252.857028,70.2256142 249.976038,70.2256142 L236.108656,70.2256142 Z M244.429085,62.0708928 C244.429085,62.2866272 244.536583,62.3944928 244.751583,62.3944928 L250.040538,62.3297728 C251.631532,62.3297728 252.921508,61.7580851 253.910505,60.6146925 C254.899501,59.4712999 255.415491,57.9503949 255.458491,56.0519317 L255.458491,39.0952887 C255.458491,37.1536787 254.964,35.6112005 253.975004,34.4678079 C252.986007,33.3244153 251.674532,32.7527276 250.040538,32.7527276 L244.751583,32.7527276 C244.536583,32.7527276 244.429085,32.8605932 244.429085,33.0763277 L244.429085,62.0708928 Z M277.394976,63.235853 L275.911489,69.5784141 C275.78249,70.009883 275.481495,70.2256142 275.008497,70.2256142 L267.204063,70.2256142 C266.645065,70.2256142 266.430069,69.9451636 266.559069,69.3842541 L278.16897,25.5688064 C278.297969,25.1373375 278.598964,24.9216062 279.071962,24.9216062 L288.424382,24.9216062 C288.897381,24.9216062 289.198375,25.1373375 289.327375,25.5688064 L301.001775,69.3842541 L301.066274,69.6431341 C301.066274,70.0314561 300.829779,70.2256142 300.35678,70.2256142 L292.423348,70.2256142 C291.99335,70.2256142 291.713855,70.009883 291.584855,69.5784141 L290.101368,63.235853 M290.101368,63.235853 L284.03842,37.1536884 C283.99542,36.9811008 283.930921,36.9055949 283.844921,36.9271684 C283.758922,36.9487418 283.694423,37.0242477 283.651423,37.1536884 L277.394976,63.235853 M306.490901,70.2256142 C306.275901,70.2256142 306.093155,70.1501083 305.942655,69.9990942 C305.792156,69.8480801 305.716907,69.6647085 305.716907,69.4489741 L305.716907,25.6982464 C305.716907,25.4825119 305.792156,25.2991404 305.942655,25.1481263 C306.093155,24.9971122 306.275901,24.9216062 306.490901,24.9216062 L313.908337,24.9216062 C314.338336,24.9216062 314.66083,25.0941912 314.875829,25.4393663 L322.228766,38.9658487 C322.357766,39.1384363 322.486763,39.1384363 322.615763,38.9658487 L330.0332,25.4393663 C330.248199,25.0941912 330.570693,24.9216062 331.000691,24.9216062 L338.418128,24.9216062 C338.633127,24.9216062 338.815874,24.9971122 338.966373,25.1481263 C339.116873,25.2991404 339.192121,25.4825119 339.192121,25.6982464 L339.192121,69.4489741 C339.192121,69.6647085 339.116873,69.8480801 338.966373,69.9990942 C338.815874,70.1501083 338.633127,70.2256142 338.418128,70.2256142 L330.871692,70.2256142 C330.656693,70.2256142 330.473947,70.1501083 330.323447,69.9990942 C330.172948,69.8480801 330.097699,69.6647085 330.097699,69.4489741 L330.097699,41.3604891 C330.097699,41.1879016 330.0547,41.1016091 329.9687,41.1016091 C329.8827,41.1016091 329.796702,41.1663285 329.710702,41.2957691 L324.486247,50.8743308 C324.271248,51.2195059 323.948754,51.3920909 323.518755,51.3920909 L321.325774,51.3920909 C320.852776,51.3920909 320.530282,51.2195059 320.358282,50.8743308 L315.198326,41.2310491 C315.112327,41.1016084 315.026328,41.0476756 314.940328,41.0692491 C314.854329,41.0908225 314.81133,41.1879016 314.81133,41.3604891 L314.81133,69.4489741 C314.81133,69.6647085 314.736081,69.8480801 314.585581,69.9990942 C314.435082,70.1501083 314.252335,70.2256142 314.037336,70.2256142 L306.490901,70.2256142 Z M371.51969,70.7433743 C368.595701,70.7433743 366.026498,70.2148328 363.812006,69.157734 C361.597514,68.1006352 359.888296,66.6120898 358.6843,64.6920532 C357.480304,62.7720166 356.878315,60.5607717 356.878315,58.0582521 L356.878315,56.3108118 C356.878315,56.0950773 356.953564,55.9117058 357.104063,55.7606917 C357.254563,55.6096776 357.437309,55.5341716 357.652309,55.5341716 L365.069745,55.5341716 C365.284745,55.5341716 365.467491,55.6096776 365.617991,55.7606917 C365.76849,55.9117058 365.843739,56.0950773 365.843739,56.3108118 L365.843739,57.605212 C365.843739,59.1153531 366.402728,60.3773807 367.520724,61.3913327 C368.638721,62.4052846 370.100693,62.9122529 371.906687,62.9122529 C373.583681,62.9122529 374.862907,62.4807905 375.744404,61.6178527 C376.625901,60.7549149 377.066643,59.6546857 377.066643,58.3171321 C377.066643,57.3247537 376.787148,56.4726154 376.22815,55.7606917 C375.669152,55.048768 374.884417,54.3800012 373.87392,53.7543713 C372.863424,53.1287414 371.304703,52.2766031 369.19771,51.1979309 C366.617719,49.9035242 364.510758,48.6954294 362.876764,47.5736102 C361.24277,46.4517911 359.845296,45.006392 358.6843,43.2373695 C357.523304,41.468347 356.942815,39.332608 356.942815,36.8300883 C356.942815,33.033162 358.232791,30.012925 360.812782,27.7692867 C363.392773,25.5256485 366.78971,24.4038462 371.003695,24.4038462 C373.884685,24.4038462 376.443137,24.9539607 378.679129,26.0542064 C380.915121,27.1544521 382.656589,28.6969303 383.903585,30.6816873 C385.15058,32.6664442 385.774069,34.9531951 385.774069,37.5420085 L385.774069,38.8364087 C385.774069,39.0521431 385.69882,39.2355147 385.548321,39.3865288 C385.397821,39.5375429 385.215075,39.6130488 385.000075,39.6130488 L377.582639,39.6130488 C377.367639,39.6130488 377.184893,39.5375429 377.034393,39.3865288 C376.883894,39.2355147 376.808645,39.0521431 376.808645,38.8364087 L376.808645,37.6714485 C376.808645,36.1181604 376.271155,34.8237732 375.196159,33.7882478 C374.121163,32.7527224 372.680689,32.2349675 370.874696,32.2349675 C369.326701,32.2349675 368.111974,32.6340703 367.230477,33.4322877 C366.34898,34.2305052 365.908238,35.341521 365.908238,36.7653683 C365.908238,37.7577468 366.166233,38.6206717 366.682232,39.3541688 C367.19823,40.0876659 367.993715,40.7887924 369.068711,41.4575692 C370.143707,42.1263459 371.756178,43.0000574 373.90617,44.0787296 L375.325158,44.8553698 C377.819149,46.2792171 379.764863,47.4980985 381.162358,48.5120504 C382.559853,49.5260023 383.731581,50.7988165 384.677578,52.3305311 C385.623575,53.8622457 386.096566,55.7283207 386.096566,57.9288121 C386.096566,61.8120322 384.763591,64.9185616 382.0976,67.2484937 C379.431609,69.5784258 375.905675,70.7433743 371.51969,70.7433743 Z M418.67546,24.9216062 C418.89046,24.9216062 419.073206,24.9971122 419.223706,25.1481263 C419.374205,25.2991404 419.449454,25.4825119 419.449454,25.6982464 L419.449454,32.0408075 C419.449454,32.2565419 419.374205,32.4399135 419.223706,32.5909276 C419.073206,32.7419417 418.89046,32.8174476 418.67546,32.8174476 L408.871544,32.8174476 C408.656545,32.8174476 408.549047,32.9253132 408.549047,33.1410477 L408.549047,69.4489741 C408.549047,69.6647085 408.473798,69.8480801 408.323299,69.9990942 C408.172799,70.1501083 407.990053,70.2256142 407.775053,70.2256142 L400.228618,70.2256142 C400.013618,70.2256142 399.830872,70.1501083 399.680372,69.9990942 C399.529873,69.8480801 399.454624,69.6647085 399.454624,69.4489741 L399.454624,33.1410477 C399.454624,32.9253132 399.347126,32.8174476 399.132127,32.8174476 L389.650708,32.8174476 C389.435709,32.8174476 389.252962,32.7419417 389.102463,32.5909276 C388.951963,32.4399135 388.876715,32.2565419 388.876715,32.0408075 L388.876715,25.6982464 C388.876715,25.4825119 388.951963,25.2991404 389.102463,25.1481263 C389.252962,24.9971122 389.435709,24.9216062 389.650708,24.9216062 L418.67546,24.9216062 Z M429.324542,63.235853 L427.841054,69.5784141 C427.712055,70.009883 427.41106,70.2256142 426.938062,70.2256142 L419.133629,70.2256142 C418.574631,70.2256142 418.359635,69.9451636 418.488634,69.3842541 L430.098535,25.5688064 C430.227535,25.1373375 430.528529,24.9216062 431.001527,24.9216062 L440.353948,24.9216062 C440.826946,24.9216062 441.12794,25.1373375 441.25694,25.5688064 L452.93134,69.3842541 L452.99584,69.6431341 C452.99584,70.0314561 452.759344,70.2256142 452.286346,70.2256142 L444.352914,70.2256142 C443.922915,70.2256142 443.64342,70.009883 443.514421,69.5784141 L442.030933,63.235853 M442.030933,63.235853 L435.967985,37.1536884 C435.924985,36.9811008 435.860486,36.9055949 435.774487,36.9271684 C435.688487,36.9487418 435.623988,37.0242477 435.580988,37.1536884 L429.324542,63.235853 M458.355966,70.2256142 C458.140967,70.2256142 457.958221,70.1501083 457.807721,69.9990942 C457.657222,69.8480801 457.581973,69.6647085 457.581973,69.4489741 L457.581973,25.6982464 C457.581973,25.4825119 457.657222,25.2991404 457.807721,25.1481263 C457.958221,24.9971122 458.140967,24.9216062 458.355966,24.9216062 L465.966901,24.9216062 C466.3969,24.9216062 466.697894,25.1157643 466.869894,25.5040863 L479.253788,51.3273709 C479.339788,51.4568116 479.425786,51.5107444 479.511786,51.4891709 C479.597786,51.4675975 479.640785,51.3705184 479.640785,51.1979309 L479.576285,25.6982464 C479.576285,25.4825119 479.651534,25.2991404 479.802033,25.1481263 C479.952533,24.9971122 480.135279,24.9216062 480.350279,24.9216062 L487.832215,24.9216062 C488.047214,24.9216062 488.229961,24.9971122 488.38046,25.1481263 C488.53096,25.2991404 488.606208,25.4825119 488.606208,25.6982464 L488.606208,69.4489741 C488.606208,69.6647085 488.53096,69.8480801 488.38046,69.9990942 C488.229961,70.1501083 488.047214,70.2256142 487.832215,70.2256142 L480.15678,70.2256142 C479.769782,70.2256142 479.468787,70.0314561 479.253788,69.6431341 L466.869894,43.6256895 C466.783894,43.4962489 466.697896,43.4423161 466.611896,43.4638895 C466.525896,43.485463 466.482897,43.582542 466.482897,43.7551296 L466.611896,69.4489741 C466.611896,69.6647085 466.536647,69.8480801 466.386148,69.9990942 C466.235648,70.1501083 466.052902,70.2256142 465.837903,70.2256142 L458.355966,70.2256142 Z M495.514322,70.2256142 C495.299322,70.2256142 495.116576,70.1501083 494.966076,69.9990942 C494.815577,69.8480801 494.740328,69.6647085 494.740328,69.4489741 L494.740328,25.6982464 C494.740328,25.4825119 494.815577,25.2991404 494.966076,25.1481263 C495.116576,24.9971122 495.299322,24.9216062 495.514322,24.9216062 L509.381703,24.9216062 C512.262693,24.9216062 514.810396,25.4609343 517.024888,26.5396065 C519.23938,27.6182788 520.948599,29.1499704 522.152594,31.1347273 C523.35659,33.1194843 523.958579,35.4278083 523.958579,38.0597686 L523.958579,57.0874519 C523.958579,59.7194122 523.35659,62.0277362 522.152594,64.0124931 C520.948599,65.9972501 519.23938,67.5289417 517.024888,68.6076139 C514.810396,69.6862862 512.262693,70.2256142 509.381703,70.2256142 L495.514322,70.2256142 Z M503.834751,62.0708928 C503.834751,62.2866272 503.942249,62.3944928 504.157248,62.3944928 L509.446203,62.3297728 C511.037197,62.3297728 512.327173,61.7580851 513.31617,60.6146925 C514.305166,59.4712999 514.821157,57.9503949 514.864157,56.0519317 L514.864157,39.0952887 C514.864157,37.1536787 514.369666,35.6112005 513.380669,34.4678079 C512.391673,33.3244153 511.080197,32.7527276 509.446203,32.7527276 L504.157248,32.7527276 C503.942249,32.7527276 503.834751,32.8605932 503.834751,33.0763277 L503.834751,62.0708928 Z M536.800642,63.235853 L535.317154,69.5784141 C535.188155,70.009883 534.88716,70.2256142 534.414162,70.2256142 L526.609729,70.2256142 C526.050731,70.2256142 525.835735,69.9451636 525.964734,69.3842541 L537.574635,25.5688064 C537.703635,25.1373375 538.004629,24.9216062 538.477627,24.9216062 L547.830048,24.9216062 C548.303046,24.9216062 548.60404,25.1373375 548.73304,25.5688064 L560.40744,69.3842541 L560.47194,69.6431341 C560.47194,70.0314561 560.235444,70.2256142 559.762446,70.2256142 L551.829013,70.2256142 C551.399015,70.2256142 551.11952,70.009883 550.990521,69.5784141 L549.507033,63.235853 M549.507033,63.235853 L543.444085,37.1536884 C543.401085,36.9811008 543.336586,36.9055949 543.250587,36.9271684 C543.164587,36.9487418 543.100088,37.0242477 543.057088,37.1536884 L536.800642,63.235853 M586.278392,70.2256142 C585.805394,70.2256142 585.504399,70.009883 585.3754,69.5784141 L578.860955,51.715691 C578.774955,51.5431034 578.667457,51.4568109 578.538458,51.4568109 L574.474993,51.4568109 C574.259993,51.4568109 574.152495,51.5646765 574.152495,51.780411 L574.152495,69.4489741 C574.152495,69.6647085 574.077247,69.8480801 573.926747,69.9990942 C573.776248,70.1501083 573.593501,70.2256142 573.378502,70.2256142 L565.832066,70.2256142 C565.617067,70.2256142 565.43432,70.1501083 565.283821,69.9990942 C565.133322,69.8480801 565.058073,69.6647085 565.058073,69.4489741 L565.058073,25.6335264 C565.058073,25.4177919 565.133322,25.2344204 565.283821,25.0834063 C565.43432,24.9323922 565.617067,24.8568862 565.832066,24.8568862 L581.569932,24.8568862 C584.106923,24.8568862 586.364381,25.428574 588.342374,26.5719665 C590.320367,27.7153591 591.846839,29.3225567 592.921835,31.3936074 C593.996831,33.4646581 594.534321,35.8377015 594.534321,38.5128086 C594.534321,41.2742096 593.921583,43.6796126 592.696087,45.7290899 C591.470591,47.7785672 589.761373,49.2994722 587.568381,50.2918507 C587.396381,50.3781445 587.353382,50.5291563 587.439382,50.7448908 L594.792319,69.3195341 C594.835319,69.4058278 594.856819,69.5136934 594.856819,69.6431341 C594.856819,70.0314561 594.620323,70.2256142 594.147325,70.2256142 L586.278392,70.2256142 Z M574.474993,32.7527276 C574.259993,32.7527276 574.152495,32.8605932 574.152495,33.0763277 L574.152495,44.0787296 C574.152495,44.2944641 574.259993,44.4023297 574.474993,44.4023297 L580.086445,44.4023297 C581.677439,44.4023297 582.967415,43.8737882 583.956412,42.8166894 C584.945408,41.7595906 585.439899,40.3681243 585.439899,38.6422487 C585.439899,36.8300793 584.945408,35.3954667 583.956412,34.3383679 C582.967415,33.2812691 581.677439,32.7527276 580.086445,32.7527276 L574.474993,32.7527276 Z M600.410444,70.2256142 C600.195444,70.2256142 600.012698,70.1501083 599.862198,69.9990942 C599.711699,69.8480801 599.63645,69.6647085 599.63645,69.4489741 L599.63645,25.6982464 C599.63645,25.4825119 599.711699,25.2991404 599.862198,25.1481263 C600.012698,24.9971122 600.195444,24.9216062 600.410444,24.9216062 L614.277825,24.9216062 C617.158815,24.9216062 619.706518,25.4609343 621.92101,26.5396065 C624.135502,27.6182788 625.844721,29.1499704 627.048716,31.1347273 C628.252712,33.1194843 628.854701,35.4278083 628.854701,38.0597686 L628.854701,57.0874519 C628.854701,59.7194122 628.252712,62.0277362 627.048716,64.0124931 C625.844721,65.9972501 624.135502,67.5289417 621.92101,68.6076139 C619.706518,69.6862862 617.158815,70.2256142 614.277825,70.2256142 L600.410444,70.2256142 Z M608.730873,62.0708928 C608.730873,62.2866272 608.838371,62.3944928 609.05337,62.3944928 L614.342325,62.3297728 C615.933319,62.3297728 617.223295,61.7580851 618.212292,60.6146925 C619.201288,59.4712999 619.717279,57.9503949 619.760278,56.0519317 L619.760278,39.0952887 C619.760278,37.1536787 619.265788,35.6112005 618.276791,34.4678079 C617.287795,33.3244153 615.976319,32.7527276 614.342325,32.7527276 L609.05337,32.7527276 C608.838371,32.7527276 608.730873,32.8605932 608.730873,33.0763277 L608.730873,62.0708928 Z" id="Shape"></path>
                </g>
            </g>
        </g>
    </g>
</svg>